<svg width="21" height="21" viewBox="0 0 21 21" fill="none" xmlns="http://www.w3.org/2000/svg">
<path d="M8.99067 0C13.9545 0 17.983 4.032 17.983 9C17.983 13.968 13.9545 18 8.99067 18C4.02688 18 -0.00170898 13.968 -0.00170898 9C-0.00170898 4.032 4.02688 0 8.99067 0ZM8.99067 16C12.8544 16 15.9847 12.867 15.9847 9C15.9847 5.132 12.8544 2 8.99067 2C5.12595 2 1.9966 5.132 1.9966 9C1.9966 12.867 5.12595 16 8.99067 16ZM17.4685 16.071L20.2951 18.899L18.8813 20.314L16.0557 17.485L17.4685 16.071Z" fill="#888C94"/>
</svg>
